<?xml version="1.0" standalone="no"?>
<!DOCTYPE svg PUBLIC "-//W3C//DTD SVG 20010904//EN" "http://www.w3.org/TR/2001/REC-SVG-20010904/DTD/svg10.dtd">
<svg version="1.0" xmlns="http://www.w3.org/2000/svg" width="512px" height="512px" viewBox="0 0 512 512" preserveAspectRatio="xMidYMid meet">

    <g transform="translate(0,512) scale(0.1,-0.1)" fill="#000000" stroke="none">

        <path d="M1420 4390 l0 -120 -57 0 c-222 -2 -352 -70 -429 -226 -33 -67 -38
        -84 -42 -174 l-5 -100 -123 0 -124 0 0 -105 0 -105 125 0 125 0 0 -110 0 -110
        -125 0 -125 0 0 -105 0 -105 125 0 125 0 0 -90 0 -90 -125 0 -125 0 0 -105 0
        -105 125 0 125 0 0 -110 0 -110 -125 0 -125 0 0 -105 0 -105 125 0 125 0 0
        -105 0 -105 -125 0 -125 0 0 -105 0 -105 125 0 125 0 0 -110 0 -110 -125 0
        -125 0 0 -105 0 -105 125 0 125 0 0 -73 c0 -83 21 -174 52 -226 73 -123 211
        -201 355 -201 l53 0 0 -125 0 -125 105 0 105 0 0 125 0 125 110 0 110 0 0
        -125 0 -125 105 0 105 0 0 125 0 125 110 0 110 0 0 -125 0 -125 105 0 105 0 0
        125 0 125 105 0 105 0 0 -125 0 -125 105 0 105 0 0 125 0 125 90 0 90 0 0
        -125 0 -125 105 0 105 0 0 125 0 125 110 0 110 0 0 -125 0 -125 105 0 105 0 0
        125 0 125 83 0 c116 0 188 17 260 60 117 71 187 193 187 330 l0 70 125 0 125
        0 0 105 0 104 -122 3 -123 3 -3 108 -3 107 126 0 125 0 0 105 0 104 -122 3
        -123 3 0 105 0 105 123 3 122 3 0 104 0 105 -125 0 -125 0 0 105 0 105 125 0
        125 0 0 105 0 104 -122 3 -123 3 -3 88 -3 87 126 0 125 0 0 110 0 110 -125 0
        -125 0 0 105 0 105 125 0 125 0 0 105 0 104 -122 3 -123 3 -5 120 c-6 142 -28
        202 -107 286 -68 73 -144 108 -259 122 l-94 11 0 118 0 118 -105 0 -105 0 0
        -120 0 -120 -105 0 -105 0 0 120 0 120 -110 0 -110 0 0 -120 0 -120 -90 0 -90
        0 0 120 0 120 -105 0 -105 0 0 -120 0 -120 -105 0 -105 0 0 120 0 120 -105 0
        -105 0 0 -120 0 -120 -110 0 -110 0 0 120 0 120 -105 0 -105 0 0 -120 0 -120
        -110 0 -110 0 0 120 0 120 -105 0 -105 0 0 -120z m2472 -362 c22 -13 51 -41
        64 -64 l24 -41 0 -1307 c0 -1291 0 -1307 -20 -1346 -11 -22 -39 -52 -62 -67
        l-42 -28 -1290 -3 c-899 -2 -1302 0 -1328 8 -50 14 -97 56 -119 105 -18 38
        -19 100 -19 1328 0 1398 -3 1325 53 1386 49 53 -15 50 1391 51 l1308 0 40 -22z"/>

    </g>

    <rect x="110" y="105" width="290px" height="290px" stroke="#FFFFFF" stroke-width="10px" rx="20px" ry="20px" stroke-linejoin="round" />

    <text text-anchor="middle" x="255" y="275" font-size="80px" stroke-width="0px" stroke="#FFFFFF" fill="#FFFFFF" font-family="arial, sans" font-weight="600">ASIC</text>

</svg>
